<svg width="335" height="67" viewBox="0 0 335 67" fill="none" xmlns="http://www.w3.org/2000/svg">
<g filter="url(#filter0_d_320_13)">
<mask id="path-1-outside-1_320_13" maskUnits="userSpaceOnUse" x="3.67969" y="0" width="327" height="59" fill="black">
<rect fill="white" x="3.67969" width="327" height="59"/>
<path d="M7.61569 56H6.67969L12.9437 5.6H15.3197L30.4397 52.184L45.4877 5.6H47.8637L54.1277 56H48.1517L43.1837 15.68L30.1517 56H25.6157L12.4397 16.184L7.61569 56Z"/>
<path d="M77.7015 56.288C72.6615 56.288 68.5575 54.848 65.3895 51.968C62.2215 49.088 60.6375 44.648 60.6375 38.648C60.6375 32.648 62.2695 27.992 65.5335 24.68C68.8455 21.368 73.0215 19.712 78.0615 19.712C83.1495 19.712 87.2775 21.152 90.4455 24.032C93.6135 26.912 95.1975 31.352 95.1975 37.352C95.1975 43.352 93.5415 48.008 90.2295 51.32C86.9655 54.632 82.7895 56.288 77.7015 56.288ZM78.2055 20.288C74.5575 20.288 71.5335 21.92 69.1335 25.184C66.7335 28.4 65.5335 32.912 65.5335 38.72C65.5335 44.48 66.6375 48.752 68.8455 51.536C71.0535 54.32 73.9815 55.712 77.6295 55.712C81.2775 55.712 84.3015 54.104 86.7015 50.888C89.1015 47.624 90.3015 43.112 90.3015 37.352C90.3015 31.544 89.1975 27.248 86.9895 24.464C84.7815 21.68 81.8535 20.288 78.2055 20.288Z"/>
<path d="M129.4 56C127.432 56 125.92 55.568 124.864 54.704C123.856 53.84 123.328 52.976 123.28 52.112L123.208 50.888V28.28C123.208 24.488 122.224 22.064 120.256 21.008C119.248 20.528 118 20.288 116.512 20.288C113.44 20.288 110.68 21.512 108.232 23.96C105.784 26.36 104.56 28.52 104.56 30.44V56H99.5203V20H104.56V28.208C105.376 26.144 106.888 24.224 109.096 22.448C111.304 20.624 113.728 19.712 116.368 19.712C119.008 19.712 121.144 19.976 122.776 20.504C124.456 20.984 125.68 21.68 126.448 22.592C127.648 24.08 128.248 26 128.248 28.352V50.888C128.248 52.28 128.512 53.36 129.04 54.128C129.616 54.848 130.192 55.232 130.768 55.28L131.56 55.424H133.792V56H129.4Z"/>
<path d="M137.059 20.576V20H138.571V12.8H143.611V20H154.627V20.576H143.611V46.784C143.611 49.904 143.947 52.16 144.619 53.552C145.339 54.944 146.803 55.64 149.011 55.64C151.267 55.64 153.547 55.184 155.851 54.272L156.067 54.848C153.667 55.76 150.907 56.216 147.787 56.216C144.715 56.216 142.411 55.592 140.875 54.344C139.339 53.048 138.571 50.504 138.571 46.712V20.576H137.059Z"/>
<path d="M164.182 38.432C164.182 44.384 165.214 48.752 167.278 51.536C169.39 54.32 172.15 55.712 175.558 55.712C180.358 55.712 184.63 54.992 188.374 53.552L188.59 54.056C184.75 55.544 180.406 56.288 175.558 56.288C170.758 56.288 166.846 54.848 163.822 51.968C160.798 49.088 159.286 44.648 159.286 38.648C159.286 32.648 160.87 27.992 164.038 24.68C167.206 21.368 171.238 19.712 176.134 19.712C180.07 19.712 183.382 20.888 186.07 23.24C188.758 25.592 190.102 29.072 190.102 33.68C190.102 33.92 190.102 34.16 190.102 34.4H164.398C164.254 35.696 164.182 37.04 164.182 38.432ZM185.206 33.824C185.158 29.216 184.27 25.808 182.542 23.6C180.814 21.392 178.582 20.288 175.846 20.288C173.11 20.288 170.662 21.488 168.502 23.888C166.39 26.288 165.046 29.6 164.47 33.824H185.206Z"/>
<path d="M221.081 20.432L221.512 20C221.704 20.096 221.945 20.384 222.232 20.864C222.568 21.344 222.76 21.776 222.809 22.16C222.904 22.544 222.952 22.904 222.952 23.24C222.952 24.536 222.665 25.856 222.089 27.2L208.264 56H207.544L194.152 20H199.193L210.208 49.808L221.368 27.2C221.945 26.192 222.232 24.992 222.232 23.6C222.232 22.208 221.849 21.152 221.081 20.432Z"/>
<path d="M234.271 56C232.303 56 230.791 55.568 229.735 54.704C228.727 53.84 228.199 52.976 228.151 52.112L228.079 50.888V20H233.119V50.888C233.119 52.28 233.383 53.36 233.911 54.128C234.487 54.848 235.039 55.232 235.567 55.28L236.431 55.424H238.663V56H234.271ZM228.511 11.936C227.935 11.36 227.647 10.64 227.647 9.776C227.647 8.912 227.935 8.192 228.511 7.616C229.087 6.992 229.807 6.68 230.671 6.68C231.535 6.68 232.255 6.992 232.831 7.616C233.455 8.192 233.767 8.912 233.767 9.776C233.767 10.64 233.455 11.36 232.831 11.936C232.255 12.512 231.535 12.8 230.671 12.8C229.807 12.8 229.087 12.512 228.511 11.936Z"/>
<path d="M245.744 38.432C245.744 44.384 246.776 48.752 248.84 51.536C250.952 54.32 253.712 55.712 257.12 55.712C261.92 55.712 266.192 54.992 269.936 53.552L270.152 54.056C266.312 55.544 261.968 56.288 257.12 56.288C252.32 56.288 248.408 54.848 245.384 51.968C242.36 49.088 240.848 44.648 240.848 38.648C240.848 32.648 242.432 27.992 245.6 24.68C248.768 21.368 252.8 19.712 257.696 19.712C261.632 19.712 264.944 20.888 267.632 23.24C270.32 25.592 271.664 29.072 271.664 33.68C271.664 33.92 271.664 34.16 271.664 34.4H245.96C245.816 35.696 245.744 37.04 245.744 38.432ZM266.768 33.824C266.72 29.216 265.832 25.808 264.104 23.6C262.376 21.392 260.144 20.288 257.408 20.288C254.672 20.288 252.224 21.488 250.064 23.888C247.952 26.288 246.608 29.6 246.032 33.824H266.768Z"/>
<path d="M288.35 23.096V21.584C286.19 22.448 284.222 24.2 282.446 26.84C280.67 29.432 279.734 31.88 279.638 34.184V56H274.598V20H279.638V31.448C280.406 28.664 281.87 26.048 284.03 23.6C286.19 21.104 288.638 19.808 291.374 19.712H291.662C292.622 19.712 293.414 20.048 294.038 20.72C294.71 21.344 295.046 22.136 295.046 23.096C295.046 24.056 294.71 24.848 294.038 25.472C293.414 26.096 292.622 26.408 291.662 26.408C290.702 26.408 289.91 26.096 289.286 25.472C288.662 24.848 288.35 24.056 288.35 23.096Z"/>
<path d="M306.233 2V37.856L322.073 20H322.793L311.057 33.248L326.537 56H321.497L308.177 36.416L306.233 38.648V56H301.193V2H306.233Z"/>
</mask>
<path d="M7.61569 56H6.67969L12.9437 5.6H15.3197L30.4397 52.184L45.4877 5.6H47.8637L54.1277 56H48.1517L43.1837 15.68L30.1517 56H25.6157L12.4397 16.184L7.61569 56Z" fill="white"/>
<path d="M77.7015 56.288C72.6615 56.288 68.5575 54.848 65.3895 51.968C62.2215 49.088 60.6375 44.648 60.6375 38.648C60.6375 32.648 62.2695 27.992 65.5335 24.68C68.8455 21.368 73.0215 19.712 78.0615 19.712C83.1495 19.712 87.2775 21.152 90.4455 24.032C93.6135 26.912 95.1975 31.352 95.1975 37.352C95.1975 43.352 93.5415 48.008 90.2295 51.32C86.9655 54.632 82.7895 56.288 77.7015 56.288ZM78.2055 20.288C74.5575 20.288 71.5335 21.92 69.1335 25.184C66.7335 28.4 65.5335 32.912 65.5335 38.72C65.5335 44.48 66.6375 48.752 68.8455 51.536C71.0535 54.32 73.9815 55.712 77.6295 55.712C81.2775 55.712 84.3015 54.104 86.7015 50.888C89.1015 47.624 90.3015 43.112 90.3015 37.352C90.3015 31.544 89.1975 27.248 86.9895 24.464C84.7815 21.68 81.8535 20.288 78.2055 20.288Z" fill="white"/>
<path d="M129.4 56C127.432 56 125.92 55.568 124.864 54.704C123.856 53.84 123.328 52.976 123.28 52.112L123.208 50.888V28.28C123.208 24.488 122.224 22.064 120.256 21.008C119.248 20.528 118 20.288 116.512 20.288C113.44 20.288 110.68 21.512 108.232 23.96C105.784 26.36 104.56 28.52 104.56 30.44V56H99.5203V20H104.56V28.208C105.376 26.144 106.888 24.224 109.096 22.448C111.304 20.624 113.728 19.712 116.368 19.712C119.008 19.712 121.144 19.976 122.776 20.504C124.456 20.984 125.68 21.68 126.448 22.592C127.648 24.08 128.248 26 128.248 28.352V50.888C128.248 52.28 128.512 53.36 129.04 54.128C129.616 54.848 130.192 55.232 130.768 55.28L131.56 55.424H133.792V56H129.4Z" fill="white"/>
<path d="M137.059 20.576V20H138.571V12.8H143.611V20H154.627V20.576H143.611V46.784C143.611 49.904 143.947 52.16 144.619 53.552C145.339 54.944 146.803 55.64 149.011 55.64C151.267 55.64 153.547 55.184 155.851 54.272L156.067 54.848C153.667 55.76 150.907 56.216 147.787 56.216C144.715 56.216 142.411 55.592 140.875 54.344C139.339 53.048 138.571 50.504 138.571 46.712V20.576H137.059Z" fill="white"/>
<path d="M164.182 38.432C164.182 44.384 165.214 48.752 167.278 51.536C169.39 54.32 172.15 55.712 175.558 55.712C180.358 55.712 184.63 54.992 188.374 53.552L188.59 54.056C184.75 55.544 180.406 56.288 175.558 56.288C170.758 56.288 166.846 54.848 163.822 51.968C160.798 49.088 159.286 44.648 159.286 38.648C159.286 32.648 160.87 27.992 164.038 24.68C167.206 21.368 171.238 19.712 176.134 19.712C180.07 19.712 183.382 20.888 186.07 23.24C188.758 25.592 190.102 29.072 190.102 33.68C190.102 33.92 190.102 34.16 190.102 34.4H164.398C164.254 35.696 164.182 37.04 164.182 38.432ZM185.206 33.824C185.158 29.216 184.27 25.808 182.542 23.6C180.814 21.392 178.582 20.288 175.846 20.288C173.11 20.288 170.662 21.488 168.502 23.888C166.39 26.288 165.046 29.6 164.47 33.824H185.206Z" fill="white"/>
<path d="M221.081 20.432L221.512 20C221.704 20.096 221.945 20.384 222.232 20.864C222.568 21.344 222.76 21.776 222.809 22.16C222.904 22.544 222.952 22.904 222.952 23.24C222.952 24.536 222.665 25.856 222.089 27.2L208.264 56H207.544L194.152 20H199.193L210.208 49.808L221.368 27.2C221.945 26.192 222.232 24.992 222.232 23.6C222.232 22.208 221.849 21.152 221.081 20.432Z" fill="white"/>
<path d="M234.271 56C232.303 56 230.791 55.568 229.735 54.704C228.727 53.84 228.199 52.976 228.151 52.112L228.079 50.888V20H233.119V50.888C233.119 52.28 233.383 53.36 233.911 54.128C234.487 54.848 235.039 55.232 235.567 55.28L236.431 55.424H238.663V56H234.271ZM228.511 11.936C227.935 11.36 227.647 10.64 227.647 9.776C227.647 8.912 227.935 8.192 228.511 7.616C229.087 6.992 229.807 6.68 230.671 6.68C231.535 6.68 232.255 6.992 232.831 7.616C233.455 8.192 233.767 8.912 233.767 9.776C233.767 10.64 233.455 11.36 232.831 11.936C232.255 12.512 231.535 12.8 230.671 12.8C229.807 12.8 229.087 12.512 228.511 11.936Z" fill="white"/>
<path d="M245.744 38.432C245.744 44.384 246.776 48.752 248.84 51.536C250.952 54.32 253.712 55.712 257.12 55.712C261.92 55.712 266.192 54.992 269.936 53.552L270.152 54.056C266.312 55.544 261.968 56.288 257.12 56.288C252.32 56.288 248.408 54.848 245.384 51.968C242.36 49.088 240.848 44.648 240.848 38.648C240.848 32.648 242.432 27.992 245.6 24.68C248.768 21.368 252.8 19.712 257.696 19.712C261.632 19.712 264.944 20.888 267.632 23.24C270.32 25.592 271.664 29.072 271.664 33.68C271.664 33.92 271.664 34.16 271.664 34.4H245.96C245.816 35.696 245.744 37.04 245.744 38.432ZM266.768 33.824C266.72 29.216 265.832 25.808 264.104 23.6C262.376 21.392 260.144 20.288 257.408 20.288C254.672 20.288 252.224 21.488 250.064 23.888C247.952 26.288 246.608 29.6 246.032 33.824H266.768Z" fill="white"/>
<path d="M288.35 23.096V21.584C286.19 22.448 284.222 24.2 282.446 26.84C280.67 29.432 279.734 31.88 279.638 34.184V56H274.598V20H279.638V31.448C280.406 28.664 281.87 26.048 284.03 23.6C286.19 21.104 288.638 19.808 291.374 19.712H291.662C292.622 19.712 293.414 20.048 294.038 20.72C294.71 21.344 295.046 22.136 295.046 23.096C295.046 24.056 294.71 24.848 294.038 25.472C293.414 26.096 292.622 26.408 291.662 26.408C290.702 26.408 289.91 26.096 289.286 25.472C288.662 24.848 288.35 24.056 288.35 23.096Z" fill="white"/>
<path d="M306.233 2V37.856L322.073 20H322.793L311.057 33.248L326.537 56H321.497L308.177 36.416L306.233 38.648V56H301.193V2H306.233Z" fill="white"/>
<path d="M7.61569 56H6.67969L12.9437 5.6H15.3197L30.4397 52.184L45.4877 5.6H47.8637L54.1277 56H48.1517L43.1837 15.68L30.1517 56H25.6157L12.4397 16.184L7.61569 56Z" stroke="white" stroke-width="3.8" mask="url(#path-1-outside-1_320_13)"/>
<path d="M77.7015 56.288C72.6615 56.288 68.5575 54.848 65.3895 51.968C62.2215 49.088 60.6375 44.648 60.6375 38.648C60.6375 32.648 62.2695 27.992 65.5335 24.68C68.8455 21.368 73.0215 19.712 78.0615 19.712C83.1495 19.712 87.2775 21.152 90.4455 24.032C93.6135 26.912 95.1975 31.352 95.1975 37.352C95.1975 43.352 93.5415 48.008 90.2295 51.32C86.9655 54.632 82.7895 56.288 77.7015 56.288ZM78.2055 20.288C74.5575 20.288 71.5335 21.92 69.1335 25.184C66.7335 28.4 65.5335 32.912 65.5335 38.72C65.5335 44.48 66.6375 48.752 68.8455 51.536C71.0535 54.32 73.9815 55.712 77.6295 55.712C81.2775 55.712 84.3015 54.104 86.7015 50.888C89.1015 47.624 90.3015 43.112 90.3015 37.352C90.3015 31.544 89.1975 27.248 86.9895 24.464C84.7815 21.68 81.8535 20.288 78.2055 20.288Z" stroke="white" stroke-width="3.8" mask="url(#path-1-outside-1_320_13)"/>
<path d="M129.4 56C127.432 56 125.92 55.568 124.864 54.704C123.856 53.84 123.328 52.976 123.28 52.112L123.208 50.888V28.28C123.208 24.488 122.224 22.064 120.256 21.008C119.248 20.528 118 20.288 116.512 20.288C113.44 20.288 110.68 21.512 108.232 23.96C105.784 26.36 104.56 28.52 104.56 30.44V56H99.5203V20H104.56V28.208C105.376 26.144 106.888 24.224 109.096 22.448C111.304 20.624 113.728 19.712 116.368 19.712C119.008 19.712 121.144 19.976 122.776 20.504C124.456 20.984 125.68 21.68 126.448 22.592C127.648 24.08 128.248 26 128.248 28.352V50.888C128.248 52.28 128.512 53.36 129.04 54.128C129.616 54.848 130.192 55.232 130.768 55.28L131.56 55.424H133.792V56H129.4Z" stroke="white" stroke-width="3.8" mask="url(#path-1-outside-1_320_13)"/>
<path d="M137.059 20.576V20H138.571V12.8H143.611V20H154.627V20.576H143.611V46.784C143.611 49.904 143.947 52.16 144.619 53.552C145.339 54.944 146.803 55.64 149.011 55.64C151.267 55.64 153.547 55.184 155.851 54.272L156.067 54.848C153.667 55.76 150.907 56.216 147.787 56.216C144.715 56.216 142.411 55.592 140.875 54.344C139.339 53.048 138.571 50.504 138.571 46.712V20.576H137.059Z" stroke="white" stroke-width="3.8" mask="url(#path-1-outside-1_320_13)"/>
<path d="M164.182 38.432C164.182 44.384 165.214 48.752 167.278 51.536C169.39 54.32 172.15 55.712 175.558 55.712C180.358 55.712 184.63 54.992 188.374 53.552L188.59 54.056C184.75 55.544 180.406 56.288 175.558 56.288C170.758 56.288 166.846 54.848 163.822 51.968C160.798 49.088 159.286 44.648 159.286 38.648C159.286 32.648 160.87 27.992 164.038 24.68C167.206 21.368 171.238 19.712 176.134 19.712C180.07 19.712 183.382 20.888 186.07 23.24C188.758 25.592 190.102 29.072 190.102 33.68C190.102 33.92 190.102 34.16 190.102 34.4H164.398C164.254 35.696 164.182 37.04 164.182 38.432ZM185.206 33.824C185.158 29.216 184.27 25.808 182.542 23.6C180.814 21.392 178.582 20.288 175.846 20.288C173.11 20.288 170.662 21.488 168.502 23.888C166.39 26.288 165.046 29.6 164.47 33.824H185.206Z" stroke="white" stroke-width="3.8" mask="url(#path-1-outside-1_320_13)"/>
<path d="M221.081 20.432L221.512 20C221.704 20.096 221.945 20.384 222.232 20.864C222.568 21.344 222.76 21.776 222.809 22.16C222.904 22.544 222.952 22.904 222.952 23.24C222.952 24.536 222.665 25.856 222.089 27.2L208.264 56H207.544L194.152 20H199.193L210.208 49.808L221.368 27.2C221.945 26.192 222.232 24.992 222.232 23.6C222.232 22.208 221.849 21.152 221.081 20.432Z" stroke="white" stroke-width="3.8" mask="url(#path-1-outside-1_320_13)"/>
<path d="M234.271 56C232.303 56 230.791 55.568 229.735 54.704C228.727 53.84 228.199 52.976 228.151 52.112L228.079 50.888V20H233.119V50.888C233.119 52.28 233.383 53.36 233.911 54.128C234.487 54.848 235.039 55.232 235.567 55.28L236.431 55.424H238.663V56H234.271ZM228.511 11.936C227.935 11.36 227.647 10.64 227.647 9.776C227.647 8.912 227.935 8.192 228.511 7.616C229.087 6.992 229.807 6.68 230.671 6.68C231.535 6.68 232.255 6.992 232.831 7.616C233.455 8.192 233.767 8.912 233.767 9.776C233.767 10.64 233.455 11.36 232.831 11.936C232.255 12.512 231.535 12.8 230.671 12.8C229.807 12.8 229.087 12.512 228.511 11.936Z" stroke="white" stroke-width="3.8" mask="url(#path-1-outside-1_320_13)"/>
<path d="M245.744 38.432C245.744 44.384 246.776 48.752 248.84 51.536C250.952 54.32 253.712 55.712 257.12 55.712C261.92 55.712 266.192 54.992 269.936 53.552L270.152 54.056C266.312 55.544 261.968 56.288 257.12 56.288C252.32 56.288 248.408 54.848 245.384 51.968C242.36 49.088 240.848 44.648 240.848 38.648C240.848 32.648 242.432 27.992 245.6 24.68C248.768 21.368 252.8 19.712 257.696 19.712C261.632 19.712 264.944 20.888 267.632 23.24C270.32 25.592 271.664 29.072 271.664 33.68C271.664 33.92 271.664 34.16 271.664 34.4H245.96C245.816 35.696 245.744 37.04 245.744 38.432ZM266.768 33.824C266.72 29.216 265.832 25.808 264.104 23.6C262.376 21.392 260.144 20.288 257.408 20.288C254.672 20.288 252.224 21.488 250.064 23.888C247.952 26.288 246.608 29.6 246.032 33.824H266.768Z" stroke="white" stroke-width="3.8" mask="url(#path-1-outside-1_320_13)"/>
<path d="M288.35 23.096V21.584C286.19 22.448 284.222 24.2 282.446 26.84C280.67 29.432 279.734 31.88 279.638 34.184V56H274.598V20H279.638V31.448C280.406 28.664 281.87 26.048 284.03 23.6C286.19 21.104 288.638 19.808 291.374 19.712H291.662C292.622 19.712 293.414 20.048 294.038 20.72C294.71 21.344 295.046 22.136 295.046 23.096C295.046 24.056 294.71 24.848 294.038 25.472C293.414 26.096 292.622 26.408 291.662 26.408C290.702 26.408 289.91 26.096 289.286 25.472C288.662 24.848 288.35 24.056 288.35 23.096Z" stroke="white" stroke-width="3.8" mask="url(#path-1-outside-1_320_13)"/>
<path d="M306.233 2V37.856L322.073 20H322.793L311.057 33.248L326.537 56H321.497L308.177 36.416L306.233 38.648V56H301.193V2H306.233Z" stroke="white" stroke-width="3.8" mask="url(#path-1-outside-1_320_13)"/>
</g>
<defs>
<filter id="filter0_d_320_13" x="0.529297" y="0.0996094" width="333.599" height="66.252" filterUnits="userSpaceOnUse" color-interpolation-filters="sRGB">
<feFlood flood-opacity="0" result="BackgroundImageFix"/>
<feColorMatrix in="SourceAlpha" type="matrix" values="0 0 0 0 0 0 0 0 0 0 0 0 0 0 0 0 0 0 127 0" result="hardAlpha"/>
<feOffset dy="4"/>
<feGaussianBlur stdDeviation="2"/>
<feComposite in2="hardAlpha" operator="out"/>
<feColorMatrix type="matrix" values="0 0 0 0 0 0 0 0 0 0 0 0 0 0 0 0 0 0 0.25 0"/>
<feBlend mode="normal" in2="BackgroundImageFix" result="effect1_dropShadow_320_13"/>
<feBlend mode="normal" in="SourceGraphic" in2="effect1_dropShadow_320_13" result="shape"/>
</filter>
</defs>
</svg>
