<svg width="57" height="57" viewBox="0 0 57 57" fill="none" xmlns="http://www.w3.org/2000/svg">
<path d="M56 28.5C56 43.6878 43.6878 56 28.5 56C13.3122 56 1 43.6878 1 28.5C1 13.3122 13.3122 1 28.5 1C43.6878 1 56 13.3122 56 28.5Z" fill="white"/>
<path d="M45.9551 37.3518L38.1332 10.9221C38.2724 24.6947 41.4786 25.0553 35.9102 27.2228C34.8729 27.6266 33.5312 28.0931 31.8085 28.7206C31.3629 28.8829 30.8917 29.0561 30.3937 29.2417C29.7122 29.4734 28.2464 29.4551 26.4416 29.1057C24.7727 28.7826 22.8139 28.1763 20.9174 27.2228C17.2018 25.3548 13.725 22.1539 13.1343 17.1378V39.1984C30.7472 19.0262 45.9551 37.3518 45.9551 37.3518Z" fill="#BA8E1D"/>
<path d="M38.1332 44.4731C38.1332 44.4731 35.3041 37.0129 31.8085 28.7206C31.6782 28.4115 31.547 28.1012 31.415 27.7902C28.7795 21.5814 25.8197 15.0489 23.4262 10.9221L30.3937 45.1736C31.4366 45.3383 35.235 45.1977 38.1332 44.4731Z" fill="#BA8E1D"/>
<path d="M35.9102 27.2228C34.4281 25.8098 31.744 21.9956 32.8638 18.0435C32.0593 20.4438 30.8143 25.3026 31.415 27.7902C31.547 28.1012 31.6782 28.4115 31.8085 28.7206C33.5312 28.0931 34.8729 27.6266 35.9102 27.2228Z" fill="#BA8E1D"/>
<path d="M26.4416 29.1057C24.843 27.2296 22.002 22.6872 23.4262 19.5255C22.011 21.592 19.528 26.0246 20.9174 27.2228C22.8139 28.1763 24.7727 28.7826 26.4416 29.1057Z" fill="#BA8E1D"/>
<path d="M35.9102 27.2228C41.4786 25.0553 38.2724 24.6947 38.1332 10.9221L45.9551 37.3518C45.9551 37.3518 30.7472 19.0262 13.1343 39.1984V17.1378C13.725 22.1539 17.2018 25.3548 20.9174 27.2228M35.9102 27.2228C34.8729 27.6266 33.5312 28.0931 31.8085 28.7206M35.9102 27.2228C34.4281 25.8098 31.744 21.9956 32.8638 18.0435C32.0593 20.4438 30.8143 25.3026 31.415 27.7902M31.8085 28.7206C31.3629 28.8829 30.8917 29.0561 30.3937 29.2417C29.7122 29.4734 28.2464 29.4551 26.4416 29.1057M31.8085 28.7206C35.3041 37.0129 38.1332 44.4731 38.1332 44.4731C35.235 45.1977 31.4366 45.3383 30.3937 45.1736L23.4262 10.9221C25.8197 15.0489 28.7795 21.5814 31.415 27.7902M31.8085 28.7206C31.6782 28.4115 31.547 28.1012 31.415 27.7902M26.4416 29.1057C24.7727 28.7826 22.8139 28.1763 20.9174 27.2228M26.4416 29.1057C24.843 27.2296 22.002 22.6872 23.4262 19.5255C22.011 21.592 19.528 26.0246 20.9174 27.2228M56 28.5C56 43.6878 43.6878 56 28.5 56C13.3122 56 1 43.6878 1 28.5C1 13.3122 13.3122 1 28.5 1C43.6878 1 56 13.3122 56 28.5Z" stroke="#BA8E1D" stroke-width="0.140765"/>
</svg>
